inDegrees=yes
name=ik_Shooting_orientation_zug2
DataType=double
version=3
OpenSimVersion=4.3-2021-08-27-4bc7ad9
endheader
time	pelvis_tilt	pelvis_list	pelvis_rotation	pelvis_tx	pelvis_ty	pelvis_tz	hip_flexion_r	hip_adduction_r	hip_rotation_r	knee_angle_r	knee_angle_r_beta	ankle_angle_r	subtalar_angle_r	mtp_angle_r	hip_flexion_l	hip_adduction_l	hip_rotation_l	knee_angle_l	knee_angle_l_beta	ankle_angle_l	subtalar_angle_l	mtp_angle_l	lumbar_extension	lumbar_bending	lumbar_rotation	arm_flex_r	arm_add_r	arm_rot_r	elbow_flex_r	pro_sup_r	wrist_flex_r	wrist_dev_r	arm_flex_l	arm_add_l	arm_rot_l	elbow_flex_l	pro_sup_l	wrist_flex_l	wrist_dev_l
12.5	-3.556280615740427	0.2513684686237733	145.9682199506494	0	0.9399999999999999	0	44.99957396565052	-9.999999988572823	0	59.99967555682404	1.047191888594942	-4.999999851047216	0	0	44.99957396565052	-9.999999988572823	0	59.99967555682404	1.047191888594942	-4.999999851047216	0	0	4.924671346388005	-43.43489778672268	27.11676477991345	-89.95737421124947	-119.9949425336566	89.9950817878299	149.9988190931281	45.0000002556033	0	0	0	-14.96414394222167	0	75.00036446082574	45.0000002556033	0	0
12.51	-3.591911011591167	0.2990291041215165	145.9432528905411	0	0.9399999999999999	0	44.99957415767498	-9.999999988572823	0	59.99967572095464	1.047191891459561	-4.999999851047216	0	0	44.99957415767498	-9.999999988572823	0	59.99967572095464	1.047191891459561	-4.999999851047216	0	0	5.101131240395238	-43.6074001714909	27.67581170436896	-89.95851466542248	-119.995026349814	89.99511645170405	149.9988295167607	45.00000025560297	0	0	0	-14.96415220112766	0	75.00036437583644	45.00000025560297	0	0
12.52	-3.583062599845674	0.318849095748074	145.9510419276019	0	0.9399999999999999	0	44.99957430540084	-9.999999988572823	0	59.99967584736439	1.047191893665827	-4.999999851047216	0	0	44.99957430540084	-9.999999988572823	0	59.99967584736439	1.047191893665827	-4.999999851047216	0	0	5.232116119570913	-43.72621505764248	27.93614600574306	-89.95845462960523	-119.9950678351874	89.99513247261548	149.9988354233173	45.00000025560269	0	0	0	-14.96415856075694	0	75.00036431045361	45.00000025560269	0	0
12.53	-3.598923326201923	0.3026794701750488	145.9039278101245	0	0.9399999999999999	0	44.99957455240892	-9.999999988572823	0	59.99967605846273	1.047191897350188	-4.999999851047216	0	0	44.99957455240892	-9.999999988572823	0	59.99967605846273	1.047191897350188	-4.999999851047216	0	0	5.547161415469471	-43.8722659924889	28.43661957386814	-89.95795889035352	-119.9951253504821	89.99514421878369	149.9988429533688	45.00000025560225	0	0	0	-14.96416918646772	0	75.00036420112873	45.00000025560225	0	0
12.54	-3.595747446543519	0.3319963158230008	145.9319380323491	0	0.9399999999999999	0	44.99957467353476	-9.999999988572823	0	59.99967616222368	1.047191899161159	-4.999999851047216	0	0	44.99957467353476	-9.999999988572823	0	59.99967616222368	1.047191899161159	-4.999999851047216	0	0	5.429574978764967	-43.76798805226994	28.50068900883154	-89.95883821463569	-119.9951559210752	89.99514628632373	149.9988461743921	45.00000025560201	0	0	0	-14.96417440659141	0	75.00036414751891	45.00000025560201	0	0
12.55	-3.61344923653022	0.3576192549951518	145.919868734297	0	0.9399999999999999	0	44.9995747852292	-9.999999988572823	0	59.99967625795456	1.047191900831978	-4.999999851047216	0	0	44.9995747852292	-9.999999988572823	0	59.99967625795456	1.047191900831978	-4.999999851047216	0	0	5.236510425867965	-43.55077439568863	28.54777073866329	-89.96048043781208	-119.9951816955528	89.99514382835092	149.9988479153147	45.00000025560181	0	0	0	-14.96417922247007	0	75.00036409808332	45.00000025560181	0	0
12.56	-3.640982972443069	0.3789016780661138	145.9247763630095	0	0.9399999999999999	0	44.99957490114498	-9.999999988572823	0	59.9996763573015	1.047191902565909	-4.999999851047216	0	0	44.99957490114498	-9.999999988572823	0	59.9996763573015	1.047191902565909	-4.999999851047216	0	0	5.122680639831492	-43.37984205679902	28.65276419449162	-89.96115075636123	-119.9952158596774	89.9951370458824	149.9988509968865	45.00000025560158	0	0	0	-14.9641842207331	0	75.00036404677941	45.00000025560158	0	0
12.57	-3.654459086608342	0.3913142549071257	145.9257091843648	0	0.9399999999999999	0	44.999575030391	-9.999999988572823	0	59.99967646799736	1.047191904497916	-4.999999851047216	0	0	44.999575030391	-9.999999988572823	0	59.99967646799736	1.047191904497916	-4.999999851047216	0	0	5.064964838325749	-43.32629678294314	28.84660828445098	-89.96209425432259	-119.9952547720536	89.99514510621337	149.9988556229262	45.00000025560134	0	0	0	-14.96418979158691	0	75.00036398957558	45.00000025560134	0	0
12.58	-3.66701016743841	0.414710075274056	145.9412244731362	0	0.9399999999999999	0	44.99957516145655	-9.999999988572823	0	59.99967658024425	1.047191906456994	-4.999999851047216	0	0	44.99957516145655	-9.999999988572823	0	59.99967658024425	1.047191906456994	-4.999999851047216	0	0	5.029753715954356	-43.29153831420163	29.11125462338379	-89.96315058514996	-119.9953080968142	89.99516035122363	149.9988608799179	45.00000025560108	0	0	0	-14.96419544119273	0	75.00036393156648	45.00000025560108	0	0
12.59	-3.676297213328479	0.4175085009790047	145.9204485198883	0	0.9399999999999999	0	44.99957527247906	-9.999999988572823	0	59.99967667540846	1.047191908117923	-4.999999851047216	0	0	44.99957527247906	-9.999999988572823	0	59.99967667540846	1.047191908117923	-4.999999851047216	0	0	4.768843069265263	-43.06028932753421	29.15421217504749	-89.96550749264865	-119.9953335461981	89.99516815808121	149.9988627340965	45.00000025560088	0	0	0	-14.96420023026266	0	75.00036388242837	45.00000025560088	0	0
12.6	-3.681469222791148	0.451292798070855	145.9209414898964	0	0.9399999999999999	0	44.99957540561243	-9.999999988572823	0	59.99967678945614	1.04719191010843	-4.999999851047216	0	0	44.99957540561243	-9.999999988572823	0	59.99967678945614	1.04719191010843	-4.999999851047216	0	0	4.742674048809802	-42.93429047806521	29.40350975350435	-89.96602819937841	-119.9953812856795	89.99517068462903	149.9988669746755	45.00000025560062	0	0	0	-14.96420597115829	0	75.000363823504	45.00000025560062	0	0
12.61	-3.690310487113225	0.4654901896805408	145.8983757708972	0	0.9399999999999999	0	44.99957557551232	-9.999999988572823	0	59.99967693487703	1.047191912646503	-4.999999851047216	0	0	44.99957557551232	-9.999999988572823	0	59.99967693487703	1.047191912646503	-4.999999851047216	0	0	4.965774250565814	-42.9905637852254	29.88590890645793	-89.96603322113151	-119.9954427576178	89.99518088163148	149.9988744376969	45.00000025560031	0	0	0	-14.96421329393201	0	75.00036374830697	45.00000025560031	0	0
12.62	-3.689356696626724	0.4679334180135225	145.8838531590607	0	0.9399999999999999	0	44.99957570580412	-9.999999988572823	0	59.99967704653467	1.047191914595297	-4.999999851047216	0	0	44.99957570580412	-9.999999988572823	0	59.99967704653467	1.047191914595297	-4.999999851047216	0	0	4.947778063408281	-42.87506172271405	30.05738181591538	-89.96653483231114	-119.9954744003577	89.99517961055641	149.9988778328057	45.00000025560006	0	0	0	-14.9642189152193	0	75.0003636906403	45.00000025560006	0	0
12.63	-3.696048776319706	0.4834964846780559	145.8717039709696	0	0.9399999999999999	0	44.99957587661309	-9.999999988572823	0	59.99967719275785	1.047191917147373	-4.999999851047216	0	0	44.99957587661309	-9.999999988572823	0	59.99967719275785	1.047191917147373	-4.999999851047216	0	0	5.186602335951789	-42.97368302811623	30.50672963096178	-89.96642297446864	-119.9955264944454	89.99519269871155	149.9988852631456	45.00000025559975	0	0	0	-14.96422627978271	0	75.000363615041	45.00000025559975	0	0
12.64	-3.688208416162728	0.4774165036654878	145.8628163352245	0	0.9399999999999999	0	44.99957598933148	-9.999999988572823	0	59.99967728946574	1.047191918835244	-4.999999851047216	0	0	44.99957598933148	-9.999999988572823	0	59.99967728946574	1.047191918835244	-4.999999851047216	0	0	5.040058777162558	-42.68151536626773	30.51557273937189	-89.96708645039421	-119.9955456084675	89.99517371615971	149.9988853445353	45.00000025559955	0	1.077613842297402e-35	0	-14.9642311479868	0	75.00036356515226	45.00000025559955	0	1.077613842297402e-35
12.65	-3.69598659443365	0.4948011960666842	145.8603110019699	0	0.9399999999999999	0	44.99957611383977	-9.999999988572823	0	59.99967739618538	1.047191920697853	-4.999999851047216	0	0	44.99957611383977	-9.999999988572823	0	59.99967739618538	1.047191920697853	-4.999999851047216	0	0	4.922064056450706	-42.59207904939361	30.66027826288762	-89.96820218134467	-119.9955766234368	89.99518601545736	149.9988891103481	45.0000002555993	0	0	0	-14.96423652215477	0	75.0003635100454	45.0000002555993	0	0
12.66	-3.689728576195754	0.5174520872729116	145.8488583462334	0	0.9399999999999999	0	44.9995762625141	-9.999999988572823	0	59.99967752355116	1.047191922920805	-4.999999851047216	0	0	44.9995762625141	-9.999999988572823	0	59.99967752355116	1.047191922920805	-4.999999851047216	0	0	5.031160304087313	-42.64878341850225	30.92619444648985	-89.96835077585581	-119.9956081141393	89.99519838901298	149.9988941931602	45.00000025559901	0	0	0	-14.96424293766805	0	75.00036344424264	45.00000025559901	0	0
12.67	-3.713012318185196	0.5130593141314196	145.831502155851	0	0.9399999999999999	0	44.99957637608036	-9.999999988572823	0	59.99967762096014	1.047191924620913	-4.999999851047216	0	0	44.99957637608036	-9.999999988572823	0	59.99967762096014	1.047191924620913	-4.999999851047216	0	0	4.860726506337332	-42.49788566636683	31.01196851023765	-89.96953686593881	-119.9956311239652	89.99520309427101	149.9988967261286	45.0000002555988	0	0	0	-14.96424784303445	0	75.00036339397869	45.0000002555988	0	0
12.68	-3.729064497671991	0.5258496057764739	145.8326926562129	0	0.9399999999999999	0	44.99957648889242	-9.999999988572823	0	59.99967771772886	1.047191926309845	-4.999999851047216	0	0	44.99957648889242	-9.999999988572823	0	59.99967771772886	1.047191926309845	-4.999999851047216	0	0	4.68918587434773	-42.33490131858483	31.11204137914478	-89.97046558229664	-119.9956610715996	89.99520551002882	149.9988997935698	45.00000025559859	0	0	0	-14.96425271649749	0	75.00036334404851	45.00000025559859	0	0
12.69	-3.725281100244293	0.5461985089663653	145.8415701289614	0	0.9399999999999999	0	44.99957663532167	-9.999999988572823	0	59.99967784320138	1.047191928499754	-4.999999851047216	0	0	44.99957663532167	-9.999999988572823	0	59.99967784320138	1.047191928499754	-4.999999851047216	0	0	4.762969888395224	-42.34592723681119	31.39674504476694	-89.9707299832239	-119.9956970808967	89.99521594378325	149.9989062829208	45.0000002555983	0	0	0	-14.96425903807745	0	75.00036327923939	45.0000002555983	0	0
